#tb 0: 1/25
0,          0,          0,        1,   152064, 0x6e4f89ef
0,          1,          1,        1,   152064, 0x7f5f6551
0,          2,          2,        1,   152064, 0xc566f64a
0,          3,          3,        1,   152064, 0xceb080b0
0,          4,          4,        1,   152064, 0x473db652
0,          5,          5,        1,   152064, 0x287da8e6
0,          6,          6,        1,   152064, 0x68b47c23
0,          7,          7,        1,   152064, 0xe9028bac
0,          8,          8,        1,   152064, 0x28ff8026
0,          9,          9,        1,   152064, 0x2d7c3915
0,         10,         10,        1,   152064, 0xb45c4760
0,         11,         11,        1,   152064, 0xb247fcd5
0,         12,         12,        1,   152064, 0xcc0bad61
0,         13,         13,        1,   152064, 0xb1d6a223
0,         14,         14,        1,   152064, 0x75b38ddd
0,         15,         15,        1,   152064, 0x6e080f05
0,         16,         16,        1,   152064, 0x93414e18
0,         17,         17,        1,   152064, 0xa3e038c8
0,         18,         18,        1,   152064, 0xec506acc
0,         19,         19,        1,   152064, 0x1a0ddbff
0,         20,         20,        1,   152064, 0x19b0f570
0,         21,         21,        1,   152064, 0xc15e2412
0,         22,         22,        1,   152064, 0x59ac1d59
0,         23,         23,        1,   152064, 0x813468ef
0,         24,         24,        1,   152064, 0x4491f9d6
